<svg id="Layer_1" xmlns="http://www.w3.org/2000/svg" viewBox="0 0 1000 1000"><style>.st0{fill:#25aae1}.st1{fill:#3d3c39}</style><path class="st0" d="M613.4 113.4c2.2 1.1 4.4 2.2 6.5 3.3 14.2 6.5 21.8 20.7 20.2 37.1-1.6 14.7-13.1 26.7-28.3 28.9-4.4.5-8.7 1.1-13.1 1.1H224.2c-19.6 0-37.1 4.4-51.8 18-16.9 15.3-24 33.8-23.4 56.7v485.2c0 34.9 21.3 62.7 54 70.3 6.5 1.6 13.6 2.2 20.2 2.2h483c44.7 0 74.7-30 74.7-75.2V501.6c0-14.7 6-26.2 19.1-32.7 12-6.5 24.5-5.5 36 2.2 10.9 7.6 15.3 18 15.3 31.1v194.1c0 24 1.1 48.5-2.2 72.5-8.7 64.9-67 116.7-133 117.2-86.7 1.1-173.9.5-261.1.5H219.3c-51.2 0-90.5-22.9-118.8-64.9-10.9-16.4-17.4-34.9-20.7-54-.5-2.2-1.1-4.4-1.6-6.5V239.4c.5-1.6 1.1-2.7 1.6-4.4 8.2-56.7 49.1-102.5 103.6-116.7 6.5-1.6 13.6-3.3 20.7-4.9h409.3z"/><path class="st1" d="M921.4 194.1c-4.4 21.8-18.5 37.6-33.8 52.9-123.8 123.2-247.5 246.9-370.7 370.7-25.6 25.6-62.1 30-90.5 10.9-4.9-3.3-9.3-7.1-13.1-11.4-57.2-56.7-114.5-113.4-171.2-170.6-40.3-40.3-25.1-104.7 27.8-119.4 27.3-7.6 50.7 0 70.9 19.6 33.8 33.8 67 67.1 100.8 100.8 7.6 7.6 14.7 15.3 24.5 25.1 2.2-3.3 3.8-6.5 6-8.7 105.2-105.8 211-211 316.2-316.7 15.3-15.3 30.5-28.9 52.3-33.3H862c1.6.5 3.3 1.1 5.5 1.6 25.6 7.1 43.1 22.9 51.2 48.5 1.1 3.3 2.2 6 3.3 9.3-.6 6.5-.6 13.6-.6 20.7z"/></svg>