<svg id="Layer_1" xmlns="http://www.w3.org/2000/svg" viewBox="0 0 1000 1000"><style>.st0{fill:#25aae1}.st1{fill:#3d3c39}</style><path class="st0" d="M563.4 674.4h-162c0-23.6-2-46.6.7-69.5 7.2-76.1 46.6-133.8 107.5-178.3 24.9-18.4 50.5-36.7 66.9-62.9 7.2-11.8 13.1-24.9 16.4-38.7 5.2-22.9 3.9-45.9-2.6-68.2-7.9-28.2-24.9-48.5-53.1-58.4-50.5-18.4-98.4-15.1-141.6 20.3-29.5 24.3-42.6 57-46.6 93.8-1.3 11.1-2 21.6-3.3 33.4H196.2c-1.3-27.5 2-52.5 8.5-76.7 22.9-91.8 73.4-162.6 160-205.9C396.8 47.5 431.6 39 467 37c76.1-4.6 148.8 5.2 215.7 45.2 68.2 41.3 111.5 100.3 120 180.3 8.5 85.9-21 157.4-90.5 209.8-25.6 19-53.1 35.4-79.3 53.8-29.5 20.3-55.1 44.6-64.3 80.6-3.9 16.4-3.3 33.4-4.6 50.5-1.3 5.4-.6 11.3-.6 17.2zM389 854.7c0-61 49.8-110.2 110.8-110.2S610.6 795 610.6 855.3c0 62.3-49.8 110.8-112.8 110.8C437.5 964.8 389 915 389 854.7zm110.1 76.7c43.3 0 78.7-34.8 78.7-77.4 0-42.6-34.8-78-78-78.7-42-.7-78 34.8-78 76.7-.7 44 34.1 79.4 77.3 79.4z"/><path class="st1" d="M453.9 853.4c0-26.2 21-47.2 47.2-47.2s47.2 21 47.9 47.2c0 25.6-21.6 47.9-47.2 47.9-26.3-.7-47.9-21.7-47.9-47.9z"/></svg>