<svg id="Layer_1" xmlns="http://www.w3.org/2000/svg" viewBox="0 0 1000 1000"><style>.st0{fill:#25aae1}.st1{fill:#3d3c39}</style><path class="st0" d="M359.2 490c-10.6 4.2-17.6-1.8-23.1-10.6-13.4-20.8-19.9-43.9-18.5-68.9.9-14.3 6.9-20.8 23.6-24.5-1.4-17.1-2.8-34.7-3.7-52.2-.9-19.4-2.3-38.8 0-57.8 3.7-28.7 18.9-51.3 42.5-67.5 59.2-40.7 122.9-46.7 189-18.5 20.8 8.8 39.3 23.6 58.2 36 25.9 16.2 39.7 42.5 37 75.3-2.3 28.2-3.7 56.4-5.1 84.6 19.9 6 24 11.6 24 31.4 0 23.6-6.5 44.8-19.4 64.2-5.5 8.3-12.9 12.5-23.6 7.9-3.7 9.7-6.5 19.9-11.6 29.1-9.2 17.6-19.9 34.7-30 51.8-1.4 2.8-2.8 6-2.8 9.2-.5 11.6.5 23.6-.5 35.1-.5 7.4 2.3 10.2 9.2 12 43.4 10.6 86.4 22.2 129.4 32.8 49.5 12.5 61.9 27.3 67 78.1 1.4 11.6 1.4 23.6 2.3 35.1.5 6.5-1.8 9.7-7.9 11.1-36.5 9.7-73 21.7-110 28.2-88.7 16.2-177.9 18-268.1 12.5C346.4 819.8 276.6 811 210 786c-9.7-3.7-14.3-7.9-12.5-18.5 3.2-20.3 4.2-41.1 8.8-61.5 5.1-22.6 19.9-37.4 43.9-43 49-11.1 97.1-24.5 145.6-36.1 6.9-1.8 10.6-4.6 9.2-11.6v-3.2c.9-21.7-.5-41.1-15.7-60.5-13.4-17.7-20.4-40.8-30.1-61.6z"/><path class="st1" d="M142.5 483.9c-8.3 3.2-13.9-2.8-18.5-10.2-9.2-14.3-12.9-30.5-13.4-47.1 0-13.4 4.2-18.5 18-22.6-.9-15.3-1.8-31.4-3.2-47.1-5.5-61.9 25-101.7 86.9-112.8 28.2-5.1 55.9-4.6 82.7 6 3.7 1.4 6.9 3.2 11.1 5.1-8.8 31.4-4.2 62.9-1.9 93.8.5 8.8-.5 15.7-6.5 23.6-6.9 8.3-12 19.9-13.4 30.5-4.2 33.7 3.2 65.6 22.6 93.8 6.5 9.2 16.2 17.1 25.4 23.6 6.5 4.6 7.4 9.2 1.8 12.9-15.7 11.1-12.9 27.3-13.4 43 0 7.4 1.4 11.1 9.7 12.5 11.1 1.9 22.2 5.5 33.3 10.2-18 4.6-36 9.2-53.6 13.4-22.2 5.5-43.9 12-66.6 16.6-39.7 7.9-61.5 33.3-71.6 70.7-3.2 12-5.1 24-8.3 38.4-13.4-1.4-27.7-2.3-42.1-5.1-29.6-6.5-59.2-13.9-88.7-20.8-10.2-2.3-15.3-7.9-12.9-18.9 2.8-15.3 3.7-31 7.4-45.8 4.2-16.2 15.3-26.3 32.4-30 37.4-8.8 74.9-18.9 112.8-27.7 6.9-1.9 9.2-4.6 8.8-11.1-.5-3.2-.5-6.5 0-9.2.9-12.9-2.3-22.6-11.1-33.3-12-15.4-18.5-33.9-27.7-52.4zm550-234.3c29.1-13.9 96.1-14.8 130.8 18 2.3 2.3 4.6 4.2 7.4 5.1 31 12 47.1 38.4 43.9 71.2-1.4 15.3-1.9 30.5-2.8 45.8-.5 4.6 0 8.8 0 13.4 16.2 7.4 20.3 13.4 17.1 31.4-2.8 13.9-7.4 27.3-13.4 39.7-4.6 9.7-8.3 10.6-20.3 9.2l-4.2 11.1c-6 18.5-13.9 36.1-28.2 49.9-2.8 2.3-3.2 7.9-3.2 12 0 9.7-2.8 21.7 1.9 28.2 4.2 6 17.1 6 25.9 8.3 28.7 7.4 57.3 16.2 86.4 21.7 27.7 5.1 39.3 22.2 43.4 47.1 1.8 11.6 1.8 23.6 3.2 35.1.9 7.4-1.9 11.1-8.8 12.9-32.4 7.9-64.2 15.7-96.6 23.1-12.5 2.8-25.9 3.2-38.8 5.1-2.8-13.4-5.1-26.3-8.3-38.4-10.2-37.4-32.4-61.9-71.6-70.7-37.9-8.3-75.8-18.9-113.2-28.7-1.9-.5-3.7-1.4-7.4-2.8 13.9-3.2 25.4-6 36.5-9.2 2.8-.9 6-5.1 6.5-7.9.9-8.3.9-16.6 0-25-.5-4.2-2.8-8.8-5.1-12.5-2.8-4.2-6.9-7.9-9.7-12-.9-1.8 0-7.4 1.8-8.3 29.1-14.8 39.8-42.1 47.1-70.7 5.1-19.4 7.4-38.8.9-58.2-2.3-7.9-6-15.7-11.6-21.7-6-6.5-8.3-12.5-7.4-21.3 1.9-18 3.7-36 3.2-53.6.6-15.4-3.1-30.6-5.4-47.3z"/></svg>