<?xml version="1.0" encoding="utf-8"?>
<!-- Generator: Adobe Illustrator 16.0.0, SVG Export Plug-In . SVG Version: 6.00 Build 0)  -->
<!DOCTYPE svg PUBLIC "-//W3C//DTD SVG 1.1//EN" "http://www.w3.org/Graphics/SVG/1.1/DTD/svg11.dtd">
<svg version="1.1" id="Layer_1" xmlns="http://www.w3.org/2000/svg" xmlns:xlink="http://www.w3.org/1999/xlink" x="0px" y="0px"
	 width="900px" height="400px" viewBox="0 0 900 400" enable-background="new 0 0 900 400" xml:space="preserve">
<g opacity="0.3">
	<rect y="371" width="940" height="2"/>
</g>
<g opacity="0.3">
	<rect y="377.205" width="940" height="2"/>
</g>
<g opacity="0.3">
	<rect y="383.617" width="940" height="2"/>
</g>
<g opacity="0.3">
	<rect y="389.822" width="940" height="2"/>
</g>
<g opacity="0.3">
	<rect y="395" width="940" height="2"/>
</g>
<g opacity="0.3">
	<path d="M865,372h-2v-21.085l0.823-0.149c0.65-0.117,15.927-3.028,15.927-16.016c0-16.181-13.12-17-15.75-17
		c-5.869,0-17.375,5.247-17.375,17.375c0,11.317,12.881,15.625,15.125,15.625v2c-2.905,0-17.125-4.8-17.125-17.625
		c0-12.642,11.252-19.375,19.375-19.375c8.188,0,17.75,4.976,17.75,19c0,12.812-13.273,16.939-16.75,17.8V372z"/>
</g>
<g opacity="0.3">
	<rect x="746.833" y="105.167" width="2" height="266.833"/>
</g>
<g opacity="0.3">
	<path d="M830.152,372.171l-1.971-0.342c14.746-84.96-8.027-144.545-29.729-179.57c-23.521-37.964-50.893-56.076-51.166-56.254
		l1.092-1.676c0.276,0.18,27.962,18.481,51.721,56.79c13.948,22.489,23.851,47.383,29.432,73.991
		C836.504,298.352,836.713,334.372,830.152,372.171z"/>
</g>
<g opacity="0.3">
	<rect x="757.834" y="195.167" width="65.674" height="2"/>
</g>
<g opacity="0.3">
	<polygon points="837.167,258.833 756.313,258.833 783.576,195.77 785.412,196.563 759.355,256.833 837.167,256.833 	"/>
</g>
<g opacity="0.3">
	<polygon points="837.167,320.167 755.606,320.167 811.638,257.168 813.132,258.498 760.062,318.167 837.167,318.167 	"/>
</g>
<g opacity="0.3">
	<path d="M756.834,374.115V157.344l1.722,1.797c0.212,0.22,21.318,22.46,39.428,59.65c16.716,34.329,34.246,88.806,22.835,153.383
		l-1.969-0.348c3.182-18.006,4.094-35.225,3.393-51.428L756.834,374.115z M758.834,162.422v207.463l62.697-51.49l0.656,0.798
		c-1.979-40.9-14.195-75.278-26.003-99.525C781.211,188.915,764.211,168.503,758.834,162.422z"/>
</g>
<g opacity="0.3">
	<polygon points="732,372 730,372 730,135.721 682.47,106.015 683.53,104.319 732,134.613 	"/>
</g>
<g opacity="0.3">
	<polygon points="684,372 682,372 682,327.5 722,327.5 722,143.5 682,143.5 682,73.5 684,73.5 684,141.5 724,141.5 724,329.5 
		684,329.5 	"/>
</g>
<g opacity="0.3">
	<polygon points="684,325.5 682,325.5 682,170 723,170 723,172 684,172 	"/>
</g>
<g opacity="0.3">
	<rect x="689.5" y="142.5" width="2" height="28.5"/>
</g>
<g opacity="0.3">
	<rect x="689.195" y="179.701" width="28.311" height="2"/>
</g>
<g opacity="0.3">
	<rect x="689.195" y="189.747" width="28.311" height="2"/>
</g>
<g opacity="0.3">
	<rect x="689.195" y="199.244" width="28.311" height="2"/>
</g>
<g opacity="0.3">
	<rect x="689.195" y="209.289" width="28.311" height="2"/>
</g>
<g opacity="0.3">
	<rect x="689.195" y="218.423" width="28.311" height="2"/>
</g>
<g opacity="0.3">
	<rect x="689.195" y="228.469" width="28.311" height="2"/>
</g>
<g opacity="0.3">
	<rect x="689.195" y="237.966" width="28.311" height="2"/>
</g>
<g opacity="0.3">
	<rect x="689.195" y="248.011" width="28.311" height="2"/>
</g>
<g opacity="0.3">
	<rect x="689.195" y="256.833" width="28.311" height="2"/>
</g>
<g opacity="0.3">
	<rect x="689.195" y="266.879" width="28.311" height="2"/>
</g>
<g opacity="0.3">
	<rect x="689.195" y="276.376" width="28.311" height="2"/>
</g>
<g opacity="0.3">
	<rect x="689.195" y="286.421" width="28.311" height="2"/>
</g>
<g opacity="0.3">
	<rect x="689.195" y="294.224" width="28.311" height="2"/>
</g>
<g opacity="0.3">
	<rect x="689.195" y="304.269" width="28.311" height="2"/>
</g>
<g opacity="0.3">
	<rect x="716.506" y="148.005" width="2" height="18.63"/>
</g>
<g opacity="0.3">
	<rect x="709.091" y="148.005" width="2" height="18.63"/>
</g>
<g opacity="0.3">
	<rect x="702" y="148.005" width="2" height="18.63"/>
</g>
<g opacity="0.3">
	<rect x="695.757" y="148.005" width="2" height="18.63"/>
</g>
<g opacity="0.3">
	<path d="M633.1,373h-10.947V178.148l47.394-30.98l0.275,0.421v-30.271h2v71.137h-38.721l0.001,182.744L633.1,373z M624.152,371
		h6.949l-0.001-184.544h38.721v-37.079l-45.669,29.854V371z"/>
</g>
<g opacity="0.3">
	<rect x="662.517" y="187.456" width="2" height="28.86"/>
</g>
<g opacity="0.3">
	<polygon points="671.821,372 669.821,372 669.821,217.315 632.101,217.315 632.101,215.315 671.821,215.315 	"/>
</g>
<g opacity="0.3">
	<rect x="657.222" y="193.299" width="2" height="18.264"/>
</g>
<g opacity="0.3">
	<rect x="650.461" y="193.299" width="2" height="18.264"/>
</g>
<g opacity="0.3">
	<rect x="643.157" y="192.754" width="2" height="18.264"/>
</g>
<g opacity="0.3">
	<rect x="636.582" y="193.3" width="2" height="18.264"/>
</g>
<g opacity="0.3">
	<rect x="637.635" y="224.993" width="28.493" height="2"/>
</g>
<g opacity="0.3">
	<rect x="637.635" y="234.491" width="28.493" height="2"/>
</g>
<g opacity="0.3">
	<rect x="637.635" y="243.659" width="28.493" height="2"/>
</g>
<g opacity="0.3">
	<rect x="637.635" y="253.157" width="28.493" height="2"/>
</g>
<g opacity="0.3">
	<rect x="637.635" y="263.352" width="28.493" height="2"/>
</g>
<g opacity="0.3">
	<rect x="637.635" y="272.85" width="28.493" height="2"/>
</g>
<g opacity="0.3">
	<rect x="637.635" y="282.018" width="28.493" height="2"/>
</g>
<g opacity="0.3">
	<rect x="637.635" y="291.516" width="28.493" height="2"/>
</g>
<g opacity="0.3">
	<rect x="637.635" y="301.306" width="28.493" height="2"/>
</g>
<g opacity="0.3">
	<rect x="637.635" y="310.804" width="28.493" height="2"/>
</g>
<g opacity="0.3">
	<rect x="637.635" y="319.972" width="28.493" height="2"/>
</g>
<g opacity="0.3">
	<rect x="637.635" y="329.47" width="28.493" height="2"/>
</g>
<g opacity="0.3">
	<rect x="637.635" y="338.968" width="28.493" height="2"/>
</g>
<g opacity="0.3">
	<rect x="637.635" y="348.466" width="28.493" height="2"/>
</g>
<g opacity="0.3">
	<polygon points="615.3,372 613.3,372 613.3,286.354 598.235,286.354 598.235,372 596.235,372 596.235,284.354 615.3,284.354 	"/>
</g>
<g opacity="0.3">
	<polygon points="616.841,286.354 614.664,286.354 614.664,284.354 615.655,284.354 618.748,278.709 592.332,278.709 
		595.342,284.354 596.778,284.354 596.778,286.354 594.141,286.354 589,276.709 622.125,276.709 	"/>
</g>
<g opacity="0.3">
	<polygon points="613.875,277.709 611.875,277.709 611.875,246.75 600.25,246.75 600.25,277.709 598.25,277.709 598.25,244.75 
		613.875,244.75 	"/>
</g>
<g opacity="0.3">
	<polygon points="598.471,246.876 590.539,237 621.367,237 613.647,246.386 612.103,245.114 617.133,239 594.711,239 
		600.029,245.624 	"/>
</g>
<g opacity="0.3">
	<polygon points="611.125,236.875 609.125,236.875 609.125,200.5 602.25,200.5 602.25,236.875 600.25,236.875 600.25,198.5 
		611.125,198.5 	"/>
</g>
<g opacity="0.3">
	<rect x="604.938" y="191.75" width="2" height="7.75"/>
</g>
<g opacity="0.3">
	<polygon points="553,334.756 551,334.744 551.881,186.456 613.25,186.456 613.25,238 611.25,238 611.25,188.456 553.869,188.456 	
		"/>
</g>
<g opacity="0.3">
	<path d="M551.922,187.759c-0.144-0.45-3.491-11.218-1.556-27.772c1.78-15.232,8.609-38.384,31.031-62.173l0.709-0.752l0.729,0.734
		c40.407,40.717,33.645,73.909,30.395,89.86l-1.959-0.399c5.054-24.804,4.996-52.542-29.126-87.313
		c-41.246,44.396-28.451,86.784-28.316,87.21L551.922,187.759z"/>
</g>
<g opacity="0.3">
	<polygon points="553.034,184.614 551.161,183.914 584.218,95.505 613.823,183.946 611.927,184.581 584.114,101.495 	"/>
</g>
<g opacity="0.3">
	<rect x="555.834" y="175.048" width="54.291" height="2"/>
</g>
<g opacity="0.3">
	<rect x="559.564" y="163.295" width="46.626" height="2"/>
</g>
<g opacity="0.3">
	<rect x="564.133" y="151.078" width="37.968" height="2"/>
</g>
<g opacity="0.3">
	<rect x="568.835" y="138.5" width="29.056" height="2"/>
</g>
<g opacity="0.3">
	<path d="M573.251,128.738l-0.035-2c21.338-0.366,21.383-0.227,21.686,0.684l-1.896,0.633c0.132,0.396,0.47,0.593,0.665,0.629
		C592.604,128.485,580.577,128.612,573.251,128.738z"/>
</g>
<g opacity="0.3">
	<rect x="577.956" y="114.108" width="11.77" height="2"/>
</g>
<g opacity="0.3">
	<rect x="585.334" y="187.456" width="2" height="158.545"/>
</g>
<g opacity="0.3">
	<rect x="579.001" y="187.456" width="2" height="116.545"/>
</g>
<g opacity="0.3">
	<rect x="504.35" y="243.752" transform="matrix(0.1525 0.9883 -0.9883 0.1525 717.8419 -347.6082)" width="114.504" height="2"/>
</g>
<g opacity="0.3">
	<polygon points="435.168,372 433.168,372 433.168,346.167 597.235,346.167 597.235,348.167 435.168,348.167 	"/>
</g>
<g opacity="0.3">
	<polygon points="418.668,372 416.668,372 416.668,285.334 434.827,285.334 435.168,347.161 433.168,347.173 432.838,287.334 
		418.668,287.334 	"/>
</g>
<g opacity="0.3">
	<path d="M437.756,286.167h-23.001l-5.649-9.833h34.09L437.756,286.167z M415.912,284.167h20.665l3.227-5.833h-27.243
		L415.912,284.167z"/>
</g>
<g opacity="0.3">
	<polygon points="433.333,277.334 431.333,277.334 431.333,246.501 420,246.501 420,277.334 418,277.334 418,244.501 
		433.333,244.501 	"/>
</g>
<g opacity="0.3">
	<path d="M416.199,246.675l-5.618-9.508h30.273l-4.031,9.334h-4.49v-2h3.176l2.303-5.334h-23.727l3.062,5.183
		c1.673-0.352,2.178,0.029,2.36,0.166c0.313,0.235,0.492,0.595,0.492,0.985h-2c0,0.411,0.319,0.676,0.498,0.709
		c-0.21-0.04-0.967,0.084-1.556,0.253L416.199,246.675z"/>
</g>
<g opacity="0.3">
	<polygon points="431.333,238.167 429.333,238.167 429.333,200.334 422,200.334 422,238.167 420,238.167 420,198.334 
		431.333,198.334 	"/>
</g>
<g opacity="0.3">
	<rect x="424.667" y="192.167" width="2" height="7.167"/>
</g>
<g opacity="0.3">
	<polygon points="466.666,347.167 464.666,347.167 464.666,325.167 453.334,325.167 453.334,347.167 451.334,347.167 
		451.334,323.167 466.666,323.167 	"/>
</g>
<g opacity="0.3">
	<rect x="465.666" y="333.75" width="100.5" height="2"/>
</g>
<g opacity="0.3">
	<polygon points="581.001,347.167 579.001,347.167 579.001,324.833 567.166,324.833 567.166,346.001 565.166,346.001 
		565.166,322.833 581.001,322.833 	"/>
</g>
<g opacity="0.3">
	<path d="M518.994,336.833C518.994,336.833,518.994,336.833,518.994,336.833c-5.488,0-13.785-0.33-13.868-0.334l-0.96-0.038v-13.628
		h20.667V335.5c0,1.118-1.233,1.193-2.322,1.259C521.688,336.809,520.505,336.833,518.994,336.833z M506.166,334.537
		c2.344,0.087,8.48,0.296,12.827,0.296h0.001c2.168,0,3.277-0.054,3.839-0.103v-9.897h-16.667V334.537z"/>
</g>
<g opacity="0.3">
	<path d="M514.512,324.166L514.512,324.166h-0.018c-19.307,0-27.994-16.275-27.994-27.833c0-27.345,27.714-27.831,27.994-27.833
		c0.314,0.009,27.839,1.166,27.839,27.333c0,14.571-7.458,21.498-13.716,24.743C521.775,324.125,514.808,324.166,514.512,324.166z
		 M514.469,270.499c-1.023,0.009-25.969,0.492-25.969,25.834c0,9.987,7.059,25.833,26,25.833h0.012l0,0
		c0.274,0,6.771-0.038,13.186-3.365c8.385-4.349,12.636-12.076,12.636-22.968C540.333,271.617,515.524,270.534,514.469,270.499z"/>
</g>
<g opacity="0.3">
	<rect x="512.666" y="263" width="2" height="60.833"/>
</g>
<g opacity="0.3">
	<path d="M572.577,324.848c-1.164,0-4.162-0.188-6.862-1.935c-3.393-2.194-5.112-5.932-5.112-11.109
		c0-8.24,8.109-11.104,12.397-11.466c0,0,0.001,0,0.002,0c0.278,0,12.331,0.344,12.331,12.253c0,8.449-6.141,12.235-12.232,12.242
		C573.088,324.835,572.888,324.848,572.577,324.848z M573.118,302.335c-0.892,0.088-10.516,1.229-10.516,9.469
		c0,10.248,7.635,11.044,9.975,11.044c0.255,0,0.408-0.01,0.428-0.012c4.807-0.003,10.328-2.686,10.328-10.245
		C583.333,302.893,573.983,302.363,573.118,302.335z"/>
</g>
<g opacity="0.3">
	<rect x="572.084" y="296.333" width="2" height="5.001"/>
</g>
<g opacity="0.3">
	<path d="M458.166,325.167l-0.139-0.01c-0.115-0.017-11.527-1.745-11.527-12.407c0-10.677,12.914-12.393,13.044-12.408l0.187-0.023
		l0.182,0.046c0.119,0.03,11.921,3.146,11.921,13.636C471.833,323.161,461.968,325.167,458.166,325.167z M459.598,302.354
		c-1.534,0.233-11.098,2.029-11.098,10.396c0,8.639,8.773,10.264,9.734,10.416c0.954-0.021,11.599-0.466,11.599-9.166
		C469.833,305.7,460.974,302.76,459.598,302.354z"/>
</g>
<g opacity="0.3">
	<rect x="458.166" y="296.333" width="2" height="5.001"/>
</g>
<g opacity="0.3">
	<polygon points="402.515,372 400.515,372 400.515,314.494 396.088,314.494 396.088,312.494 402.515,312.494 	"/>
</g>
<g opacity="0.3">
	<polygon points="396.313,372 394.313,372 394.313,295.888 378.482,295.888 378.482,357.713 15.67,357.713 15.67,372 13.67,372 
		13.67,355.713 376.482,355.713 376.482,293.888 396.313,293.888 	"/>
</g>
<g opacity="0.3">
	<polygon points="32.338,356.713 30.338,356.713 30.338,295.888 15.67,295.888 15.67,356.713 13.67,356.713 13.67,293.888 
		32.338,293.888 	"/>
</g>
<g opacity="0.3">
	<rect x="31.338" y="313.851" width="56.399" height="2"/>
</g>
<g opacity="0.3">
	<rect x="31.338" y="304.741" width="56.399" height="2"/>
</g>
<g opacity="0.3">
	<path d="M88.446,357.419l-0.708-0.706l-0.001-1v1l-0.988-0.134c0.14-1.586,0.053-47.89-0.012-72.152l-0.003-1.003h20.61v73.289h-2
		v-71.289H88.74C88.932,356.93,88.856,357.007,88.446,357.419z"/>
</g>
<g opacity="0.3">
	<rect x="106.344" y="292.145" width="55.429" height="2"/>
</g>
<g opacity="0.3">
	<rect x="106.344" y="302.61" width="55.429" height="2"/>
</g>
<g opacity="0.3">
	<polygon points="180.991,356.713 178.991,356.713 178.991,275.151 162.773,275.151 162.773,355.552 160.773,355.552 
		160.773,273.151 180.991,273.151 	"/>
</g>
<g opacity="0.3">
	<rect x="179.991" y="292.919" width="50.584" height="2"/>
</g>
<g opacity="0.3">
	<polygon points="249.406,356.713 247.406,356.713 247.406,275.151 231.576,275.151 231.576,356.713 229.576,356.713 
		229.576,273.151 249.406,273.151 	"/>
</g>
<g opacity="0.3">
	<rect x="248.406" y="302.414" width="55.625" height="2"/>
</g>
<g opacity="0.3">
	<rect x="248.406" y="292.143" width="56.594" height="2"/>
</g>
<g opacity="0.3">
	<polygon points="323.055,356.713 321.055,356.713 321.055,286.167 305.03,286.167 305.03,356.713 303.03,356.713 303.03,284.167 
		323.055,284.167 	"/>
</g>
<g opacity="0.3">
	<rect x="322.055" y="314.432" width="55.428" height="2"/>
</g>
<g opacity="0.3">
	<rect x="322.055" y="305.126" width="55.428" height="2"/>
</g>
<g opacity="0.3">
	<polygon points="381.081,294.659 379.081,294.659 379.081,286.104 386.084,271.699 394.164,288.312 394.164,294.093 
		392.164,294.093 392.164,288.772 386.084,276.273 381.081,286.564 	"/>
</g>
<g opacity="0.3">
	<rect x="376.342" y="287.089" width="20.503" height="2"/>
</g>
<g opacity="0.3">
	<polygon points="307.032,284.434 305.032,284.434 305.032,277.679 312.604,261.462 320.603,277.375 320.603,284.075 
		318.603,284.075 318.603,277.85 312.671,266.048 307.032,278.122 	"/>
</g>
<g opacity="0.3">
	<rect x="302.227" y="276.757" width="21.182" height="2"/>
</g>
<g opacity="0.3">
	<polygon points="246.933,273.52 244.933,273.52 244.933,267.872 238.904,256.06 233.004,267.798 233.004,273.52 231.004,273.52 
		231.004,267.323 238.89,251.634 246.933,267.392 	"/>
</g>
<g opacity="0.3">
	<rect x="228.701" y="266.775" width="21.396" height="2"/>
</g>
<g opacity="0.3">
	<rect x="214.77" y="284.941" width="15.366" height="2"/>
</g>
<g opacity="0.3">
	<polygon points="215.339,293.919 213.339,293.919 213.339,281.412 196.312,281.412 196.312,293.919 194.312,293.919 
		194.312,279.412 215.339,279.412 	"/>
</g>
<g opacity="0.3">
	<rect x="179.991" y="284.941" width="15.321" height="2"/>
</g>
<g opacity="0.3">
	<path d="M211.667,281.412c-0.741,0-0.775,0.001-6.663-11.428l-5.443,10.875l-1.788-0.895l7.206-14.398l0.902,1.751
		c2.322,4.509,6.159,11.884,6.566,12.478l-0.78,0.536V281.412z"/>
</g>
<g opacity="0.3">
	<polygon points="164.667,274.094 162.667,274.094 162.667,267.521 170.943,252.293 178.167,267.551 178.167,273.52 176.167,273.52 
		176.167,268 170.82,256.707 164.667,268.029 	"/>
</g>
<g opacity="0.3">
	<rect x="160.333" y="266.775" width="20.833" height="2"/>
</g>
<g opacity="0.3">
	<polygon points="91,284.424 89,284.424 89,277.4 97.837,261.99 104.167,278.145 104.167,283.333 102.167,283.333 102.167,278.521 
		97.497,266.604 91,277.934 	"/>
</g>
<g opacity="0.3">
	<rect x="86" y="276.5" width="21.333" height="2"/>
</g>
<g opacity="0.3">
	<polygon points="361,305 359,305 359,247.5 388.276,247.5 388.276,276.438 386.276,276.438 386.276,249.5 361,249.5 	"/>
</g>
<g opacity="0.3">
	<polygon points="356.333,306.126 354.333,306.126 354.333,184.5 379.5,184.5 379.5,248.5 377.5,248.5 377.5,186.5 356.333,186.5 	
		"/>
</g>
<g opacity="0.3">
	<polygon points="373.667,185.5 371.667,185.5 371.667,134 353.167,134 353.167,113.833 336.5,113.833 336.5,184.667 334.5,184.667 
		334.5,111.833 355.167,111.833 355.167,132 373.667,132 	"/>
</g>
<g opacity="0.3">
	<polygon points="350.833,306.126 348.833,306.126 348.833,186.5 327.333,186.5 327.333,247.5 325.333,247.5 325.333,184.5 
		350.833,184.5 	"/>
</g>
<g opacity="0.3">
	<polygon points="345.333,306.126 343.333,306.126 343.333,249.5 318,249.5 318,271.154 316,271.154 316,247.5 345.333,247.5 	"/>
</g>
<g opacity="0.3">
	<polygon points="367,133 365,133 365,73.333 346.833,73.333 346.833,112.833 344.833,112.833 344.833,71.333 367,71.333 	"/>
</g>
<g opacity="0.3">
	<polygon points="362.167,71.5 360.167,71.5 360.167,38.666 351,38.666 351,71.5 349,71.5 349,36.666 362.167,36.666 	"/>
</g>
<g opacity="0.3">
	<rect x="354.583" y="12" width="2" height="25.667"/>
</g>
<g opacity="0.3">
	<polygon points="302.246,293.143 300.246,293.143 300.246,182.752 236.432,182.752 236.432,260.741 234.432,260.741 
		234.432,180.752 302.246,180.752 	"/>
</g>
<g opacity="0.3">
	<rect x="262.332" y="181.752" width="2" height="111.391"/>
</g>
<g opacity="0.3">
	<path d="M276.044,192.052l-0.03-2c2.409-0.037,23.588-0.349,25.428,0.02l-0.393,1.961
		C299.823,191.787,285.061,191.914,276.044,192.052z"/>
</g>
<g opacity="0.3">
	<path d="M276.044,207.892l-0.03-2c2.409-0.036,23.588-0.349,25.428,0.02l-0.393,1.961
		C299.823,207.626,285.061,207.754,276.044,207.892z"/>
</g>
<g opacity="0.3">
	<path d="M277.302,223.611l-0.03-2c2.409-0.036,23.589-0.349,25.428,0.02l-0.393,1.961
		C301.081,223.348,286.32,223.474,277.302,223.611z"/>
</g>
<g opacity="0.3">
	<path d="M276.044,238.606l-0.03-2c2.409-0.036,23.589-0.349,25.428,0.02l-0.393,1.961
		C299.823,238.343,285.062,238.469,276.044,238.606z"/>
</g>
<g opacity="0.3">
	<path d="M276.044,254.927l-0.03-2c2.409-0.036,23.589-0.348,25.428,0.02l-0.393,1.961
		C299.823,254.663,285.062,254.789,276.044,254.927z"/>
</g>
<g opacity="0.3">
	<polygon points="156.669,293.143 154.669,293.143 154.669,174.483 175.999,141.098 223.377,179.845 223.453,285.94 
		221.453,285.942 221.378,180.793 176.473,144.069 156.669,175.067 	"/>
</g>
<g opacity="0.3">
	<rect x="174.342" y="130.423" width="2" height="12.16"/>
</g>
<g opacity="0.3">
	<rect x="202.241" y="182.336" width="2" height="81.192"/>
</g>
<g opacity="0.3">
	<rect x="195.624" y="182.336" width="2" height="81.192"/>
</g>
<g opacity="0.3">
	<rect x="188.061" y="182.336" width="2" height="81.193"/>
</g>
<g opacity="0.3">
	<rect x="180.958" y="182.336" width="2" height="81.193"/>
</g>
<g opacity="0.3">
	<rect x="174.163" y="182.336" width="2" height="81.194"/>
</g>
<g opacity="0.3">
	<rect x="168.261" y="182.336" width="2" height="81.194"/>
</g>
<g opacity="0.3">
	<path d="M218.733,356.713h-2v-11.589c-0.01-0.071-0.385-3.34-7.079-3.446c-0.106,0.024-0.195,0.037-0.265,0.037
		c-0.552,0-1.074-0.487-1.074-1.04s0.448-1,1-1c0.043,0,0.085,0,0.128,0c1.313-0.483,7.289-4.143,7.289-11.986
		c0-9.099-12.044-21.542-12.166-21.667l1.431-1.397c0.52,0.533,12.735,13.152,12.735,23.064c0,6.243-3.269,10.223-5.974,12.289
		c5.681,1.111,5.962,4.904,5.972,5.093L218.733,356.713z"/>
</g>
<g opacity="0.3">
	<path d="M192.548,356.108h-2.139V344.52c0.013-0.245,0.333-4.039,6.667-5.19c-0.639-0.446-1.292-0.963-1.911-1.542
		c-2.17-2.029-4.756-5.533-4.756-10.703c0-9.982,14.004-22.629,14.6-23.162l1.427,1.594c-0.139,0.124-13.888,12.54-13.888,21.568
		c0,7.852,6.968,11.467,8.382,11.917c0.06,0,0.119,0,0.179,0c0.591,0,1.069,0.479,1.069,1.069s-0.563,1.109-1.154,1.109
		c-0.091,0-0.2-0.013-0.323-0.037c-7.682,0.113-8.153,3.436-8.157,3.47L192.548,356.108z"/>
</g>
<g opacity="0.3">
	<path d="M833.934,89.046h-74.092c-0.326,0-0.635-0.149-0.838-0.404c-0.202-0.256-0.277-0.59-0.204-0.908
		c0.045-0.192,4.67-19.251,20.729-19.251c7.395,0,13.364,4.464,15.259,6.056c1.479-0.851,5.069-2.637,9.125-2.637
		c3.479,0,8.185,1.37,11.486,7.639c1.748-1.335,4.905-2.56,7.761-2.56c3.774,0,8.884,1.85,11.79,10.662
		c0.107,0.326,0.052,0.684-0.149,0.962C834.599,88.881,834.276,89.046,833.934,89.046z M761.264,86.907h71.146
		c-2.028-5.104-5.206-7.789-9.25-7.789c-3.555,0-6.512,1.979-7.018,2.598c-0.109,0.37-0.413,0.662-0.806,0.745
		c-0.5,0.105-0.995-0.153-1.199-0.615c-2.282-5.179-5.723-7.805-10.225-7.805c-4.542,0-8.604,2.682-8.645,2.709
		c-0.415,0.278-0.969,0.23-1.33-0.111c-0.064-0.061-6.47-6.018-14.409-6.018C767.493,70.622,762.572,82.824,761.264,86.907z"/>
</g>
<g opacity="0.3">
	<path d="M513.425,89.046h-74.092c-0.326,0-0.635-0.149-0.837-0.404c-0.203-0.256-0.278-0.59-0.204-0.908
		c0.045-0.192,4.669-19.251,20.728-19.251c7.395,0,13.365,4.464,15.259,6.056c1.479-0.851,5.069-2.637,9.125-2.637
		c3.479,0,8.185,1.37,11.486,7.639c1.748-1.335,4.905-2.56,7.761-2.56c3.774,0,8.884,1.85,11.79,10.662
		c0.107,0.326,0.052,0.684-0.149,0.962C514.09,88.881,513.768,89.046,513.425,89.046z M440.754,86.907H511.9
		c-2.028-5.104-5.206-7.789-9.25-7.789c-3.555,0-6.512,1.979-7.018,2.598c-0.109,0.37-0.413,0.662-0.806,0.745
		c-0.501,0.105-0.995-0.153-1.199-0.615c-2.282-5.179-5.723-7.805-10.225-7.805c-4.542,0-8.604,2.682-8.645,2.709
		c-0.414,0.278-0.968,0.23-1.33-0.111c-0.064-0.061-6.47-6.018-14.409-6.018C446.984,70.622,442.063,82.824,440.754,86.907z"/>
</g>
<g opacity="0.3">
	<path d="M279.814,108.781h-74.092c-0.326,0-0.635-0.149-0.837-0.404c-0.203-0.256-0.278-0.59-0.204-0.908
		c0.045-0.192,4.669-19.251,20.728-19.251c7.395,0,13.365,4.464,15.259,6.056c1.479-0.851,5.069-2.637,9.125-2.637
		c3.479,0,8.185,1.37,11.487,7.639c1.748-1.335,4.905-2.56,7.76-2.56c3.775,0,8.884,1.85,11.791,10.662
		c0.107,0.326,0.052,0.684-0.149,0.962C280.48,108.617,280.158,108.781,279.814,108.781z M207.144,106.643h71.146
		c-2.028-5.104-5.206-7.789-9.25-7.789c-3.554,0-6.512,1.979-7.017,2.598c-0.109,0.37-0.413,0.662-0.806,0.745
		c-0.493,0.103-0.995-0.152-1.199-0.615c-2.283-5.179-5.723-7.805-10.225-7.805c-4.542,0-8.604,2.682-8.644,2.709
		c-0.414,0.277-0.967,0.231-1.331-0.111c-0.063-0.061-6.469-6.018-14.409-6.018C213.374,90.357,208.453,102.559,207.144,106.643z"/>
</g>
</svg>
